<svg xmlns="http://www.w3.org/2000/svg" id="export" class="canvas" preserveAspectRatio="xMidYMid meet" style="" width="153" height="731"><rect id="background" fill="#fff" pointer-events="all" width="153" height="731"/><g id="origin" transform="translate(6.9109375, 6.9109375) scale(1)"><g id="clusters" class="clusters"/><g id="edge-paths" class="edge-paths"><defs><marker id="arrowhead" viewBox="0 0 10 10" refX="9" refY="5" markerUnits="strokeWidth" markerWidth="8" markerHeight="6" orient="auto" style="fill: rgb(0, 0, 0);"><path d="M 0 0 L 10 5 L 0 10 L 4 5 z" style="stroke-width: 1;"/></marker><marker id="arrowhead-select" viewBox="0 0 10 10" refX="9" refY="5" markerUnits="strokeWidth" markerWidth="8" markerHeight="6" orient="auto" style="fill: rgb(238, 0, 0);"><path d="M 0 0 L 10 5 L 0 10 L 4 5 z" style="stroke-width: 1;"/></marker><marker id="arrowhead-hover" viewBox="0 0 10 10" refX="9" refY="5" markerUnits="strokeWidth" markerWidth="8" markerHeight="6" orient="auto"><path d="M 0 0 L 10 5 L 0 10 L 4 5 z" style="stroke-width: 1;"/></marker></defs><path id="edge-input" class="edge-path" d="M69.109375,20L69.109375,21.666666666666668C69.109375,23.333333333333332,69.109375,26.666666666666668,69.109375,31.75C69.109375,36.833333333333336,69.109375,43.666666666666664,69.109375,50.5C69.109375,57.333333333333336,69.109375,64.16666666666667,69.109375,69.25C69.109375,74.33333333333333,69.109375,77.66666666666667,69.109375,79.33333333333333L69.109375,81" style="stroke: rgb(0, 0, 0); stroke-width: 1px; fill: none; marker-end: url(&quot;#arrowhead&quot;);"/><path class="edge-path-hit-test" d="M69.109375,20L69.109375,21.666666666666668C69.109375,23.333333333333332,69.109375,26.666666666666668,69.109375,31.75C69.109375,36.833333333333336,69.109375,43.666666666666664,69.109375,50.5C69.109375,57.333333333333336,69.109375,64.16666666666667,69.109375,69.25C69.109375,74.33333333333333,69.109375,77.66666666666667,69.109375,79.33333333333333L69.109375,81" style="pointer-events: stroke; stroke-width: 0.5em; fill: none; stroke: rgb(0, 0, 0); stroke-opacity: 0.001;"/><path id="edge-lstm_3_input" class="edge-path" d="M69.109375,101L69.109375,102.66666666666667C69.109375,104.33333333333333,69.109375,107.66666666666667,69.109375,111C69.109375,114.33333333333333,69.109375,117.66666666666667,69.109375,119.33333333333333L69.109375,121" style="stroke: rgb(0, 0, 0); stroke-width: 1px; fill: none; marker-end: url(&quot;#arrowhead&quot;);"/><path class="edge-path-hit-test" d="M69.109375,101L69.109375,102.66666666666667C69.109375,104.33333333333333,69.109375,107.66666666666667,69.109375,111C69.109375,114.33333333333333,69.109375,117.66666666666667,69.109375,119.33333333333333L69.109375,121" style="pointer-events: stroke; stroke-width: 0.5em; fill: none; stroke: rgb(0, 0, 0); stroke-opacity: 0.001;"/><path id="edge-lstm_3" class="edge-path" d="M69.109375,203L69.109375,204.66666666666666C69.109375,206.33333333333334,69.109375,209.66666666666666,69.109375,213C69.109375,216.33333333333334,69.109375,219.66666666666666,69.109375,221.33333333333334L69.109375,223" style="stroke: rgb(0, 0, 0); stroke-width: 1px; fill: none; marker-end: url(&quot;#arrowhead&quot;);"/><path class="edge-path-hit-test" d="M69.109375,203L69.109375,204.66666666666666C69.109375,206.33333333333334,69.109375,209.66666666666666,69.109375,213C69.109375,216.33333333333334,69.109375,219.66666666666666,69.109375,221.33333333333334L69.109375,223" style="pointer-events: stroke; stroke-width: 0.5em; fill: none; stroke: rgb(0, 0, 0); stroke-opacity: 0.001;"/><path id="edge-lstm_4" class="edge-path" d="M69.109375,305L69.109375,306.6666666666667C69.109375,308.3333333333333,69.109375,311.6666666666667,69.109375,315C69.109375,318.3333333333333,69.109375,321.6666666666667,69.109375,323.3333333333333L69.109375,325" style="stroke: rgb(0, 0, 0); stroke-width: 1px; fill: none; marker-end: url(&quot;#arrowhead&quot;);"/><path class="edge-path-hit-test" d="M69.109375,305L69.109375,306.6666666666667C69.109375,308.3333333333333,69.109375,311.6666666666667,69.109375,315C69.109375,318.3333333333333,69.109375,321.6666666666667,69.109375,323.3333333333333L69.109375,325" style="pointer-events: stroke; stroke-width: 0.5em; fill: none; stroke: rgb(0, 0, 0); stroke-opacity: 0.001;"/><path id="edge-lstm_5" class="edge-path" d="M69.109375,407L69.109375,408.6666666666667C69.109375,410.3333333333333,69.109375,413.6666666666667,69.109375,417C69.109375,420.3333333333333,69.109375,423.6666666666667,69.109375,425.3333333333333L69.109375,427" style="stroke: rgb(0, 0, 0); stroke-width: 1px; fill: none; marker-end: url(&quot;#arrowhead&quot;);"/><path class="edge-path-hit-test" d="M69.109375,407L69.109375,408.6666666666667C69.109375,410.3333333333333,69.109375,413.6666666666667,69.109375,417C69.109375,420.3333333333333,69.109375,423.6666666666667,69.109375,425.3333333333333L69.109375,427" style="pointer-events: stroke; stroke-width: 0.5em; fill: none; stroke: rgb(0, 0, 0); stroke-opacity: 0.001;"/><path id="edge-dense_3" class="edge-path" d="M69.109375,497L69.109375,498.6666666666667C69.109375,500.3333333333333,69.109375,503.6666666666667,69.109375,507C69.109375,510.3333333333333,69.109375,513.6666666666666,69.109375,515.3333333333334L69.109375,517" style="stroke: rgb(0, 0, 0); stroke-width: 1px; fill: none; marker-end: url(&quot;#arrowhead&quot;);"/><path class="edge-path-hit-test" d="M69.109375,497L69.109375,498.6666666666667C69.109375,500.3333333333333,69.109375,503.6666666666667,69.109375,507C69.109375,510.3333333333333,69.109375,513.6666666666666,69.109375,515.3333333333334L69.109375,517" style="pointer-events: stroke; stroke-width: 0.5em; fill: none; stroke: rgb(0, 0, 0); stroke-opacity: 0.001;"/><path id="edge-dense_4" class="edge-path" d="M69.109375,587L69.109375,588.6666666666666C69.109375,590.3333333333334,69.109375,593.6666666666666,69.109375,597C69.109375,600.3333333333334,69.109375,603.6666666666666,69.109375,605.3333333333334L69.109375,607" style="stroke: rgb(0, 0, 0); stroke-width: 1px; fill: none; marker-end: url(&quot;#arrowhead&quot;);"/><path class="edge-path-hit-test" d="M69.109375,587L69.109375,588.6666666666666C69.109375,590.3333333333334,69.109375,593.6666666666666,69.109375,597C69.109375,600.3333333333334,69.109375,603.6666666666666,69.109375,605.3333333333334L69.109375,607" style="pointer-events: stroke; stroke-width: 0.5em; fill: none; stroke: rgb(0, 0, 0); stroke-opacity: 0.001;"/><path id="edge-dense_5" class="edge-path" d="M69.109375,677L69.109375,678.6666666666666C69.109375,680.3333333333334,69.109375,683.6666666666666,69.109375,687C69.109375,690.3333333333334,69.109375,693.6666666666666,69.109375,695.3333333333334L69.109375,697" style="stroke: rgb(0, 0, 0); stroke-width: 1px; fill: none; marker-end: url(&quot;#arrowhead&quot;);"/><path class="edge-path-hit-test" d="M69.109375,677L69.109375,678.6666666666666C69.109375,680.3333333333334,69.109375,683.6666666666666,69.109375,687C69.109375,690.3333333333334,69.109375,693.6666666666666,69.109375,695.3333333333334L69.109375,697" style="pointer-events: stroke; stroke-width: 0.5em; fill: none; stroke: rgb(0, 0, 0); stroke-opacity: 0.001;"/></g><g id="edge-labels" class="edge-labels"><text class="edge-label" id="edge-label-edge-input" style="opacity: 1; font-family: -apple-system, BlinkMacSystemFont, &quot;Segoe WPC&quot;, &quot;Segoe UI&quot;, Ubuntu, &quot;Droid Sans&quot;, sans-serif, &quot;PingFang SC&quot;; font-size: 10px;" transform="translate(74.109375,45)"><tspan xml:space="preserve" dy="1em" x="1">?×30×258</tspan></text></g><g id="nodes" class="nodes"><g id="input-name-input" class="node graph-input" style="opacity: 1;" transform="translate(48.664459228515625,0)"><g class="node-item graph-item-input" transform="translate(0,0)"><path d="M5,0h30.88983154296875a5,5 0 0 1 5,5v10a5,5 0 0 1 -5,5h-30.88983154296875a5,5 0 0 1 -5,-5v-10a5,5 0 0 1 5,-5z" style="stroke: rgb(0, 0, 0); fill: rgb(238, 238, 238); stroke-width: 0;"/><text x="6" y="13" style="font-family: -apple-system, BlinkMacSystemFont, &quot;Segoe WPC&quot;, &quot;Segoe UI&quot;, Ubuntu, &quot;Droid Sans&quot;, sans-serif, &quot;PingFang SC&quot;; font-size: 11px; text-rendering: geometricprecision; user-select: none;">input</text><title>float32[?,30,258]</title></g><path class="node border" d="M5,0h30.88983154296875a5,5 0 0 1 5,5v10a5,5 0 0 1 -5,5h-30.88983154296875a5,5 0 0 1 -5,-5v-10a5,5 0 0 1 5,-5z" style="stroke: rgb(51, 51, 51); fill: none; stroke-width: 1px;"/></g><g id="node-name-lstm_3_input" class="node graph-node" style="opacity: 1;" transform="translate(34.91455078125,81)"><g class="node-item node-item-type node-item-type-data" transform="translate(0,0)"><path d="M5,0h58.3896484375a5,5 0 0 1 5,5v10a5,5 0 0 1 -5,5h-58.3896484375a5,5 0 0 1 -5,-5v-10a5,5 0 0 1 5,-5z" style="stroke: rgb(0, 0, 0); fill: rgb(85, 85, 85); stroke-width: 0;"/><text x="6" y="13" style="font-family: -apple-system, BlinkMacSystemFont, &quot;Segoe WPC&quot;, &quot;Segoe UI&quot;, Ubuntu, &quot;Droid Sans&quot;, sans-serif, &quot;PingFang SC&quot;; font-size: 11px; text-rendering: geometricprecision; user-select: none; fill: rgb(255, 255, 255);">InputLayer</text><title>lstm_3_input</title></g><path class="node border" d="M5,0h58.3896484375a5,5 0 0 1 5,5v10a5,5 0 0 1 -5,5h-58.3896484375a5,5 0 0 1 -5,-5v-10a5,5 0 0 1 5,-5z" style="stroke: rgb(51, 51, 51); fill: none; stroke-width: 1px;"/></g><g id="node-name-lstm_3" class="node graph-node" style="opacity: 1;" transform="translate(2.5390625,121)"><g class="node-item node-item-type node-item-type-layer" transform="translate(0,0)"><path d="M5,0h123.140625a5,5 0 0 1 5,5v15a0,0 0 0 1 0,0h-133.140625a0,0 0 0 1 0,0v-15a5,5 0 0 1 5,-5z" style="stroke: rgb(0, 0, 0); fill: rgb(51, 85, 136); stroke-width: 0;"/><text x="6" y="13" style="font-family: -apple-system, BlinkMacSystemFont, &quot;Segoe WPC&quot;, &quot;Segoe UI&quot;, Ubuntu, &quot;Droid Sans&quot;, sans-serif, &quot;PingFang SC&quot;; font-size: 11px; text-rendering: geometricprecision; user-select: none; fill: rgb(255, 255, 255);">LSTM</text><title>lstm_3</title></g><g class="node-attribute" transform="translate(0,20)"><path d="M0,0h133.140625a0,0 0 0 1 0,0v42a0,0 0 0 1 0,0h-133.140625a0,0 0 0 1 0,0v-42a0,0 0 0 1 0,0z" style="stroke: rgb(0, 0, 0); fill: rgb(255, 255, 255); stroke-width: 0;"/><text xml:space="preserve" x="6" y="12" style="font-family: -apple-system, BlinkMacSystemFont, &quot;Segoe WPC&quot;, &quot;Segoe UI&quot;, Ubuntu, &quot;Droid Sans&quot;, sans-serif, &quot;PingFang SC&quot;; font-size: 9px; font-weight: normal; text-rendering: geometricprecision; user-select: none;"><title>float32[258,256]</title><tspan style="font-weight: bold;">kernel</tspan><tspan>〈258×256〉</tspan></text><text xml:space="preserve" x="6" y="24" style="font-family: -apple-system, BlinkMacSystemFont, &quot;Segoe WPC&quot;, &quot;Segoe UI&quot;, Ubuntu, &quot;Droid Sans&quot;, sans-serif, &quot;PingFang SC&quot;; font-size: 9px; font-weight: normal; text-rendering: geometricprecision; user-select: none;"><title>float32[64,256]</title><tspan style="font-weight: bold;">recurrent_kernel</tspan><tspan>〈64×256〉</tspan></text><text xml:space="preserve" x="6" y="36" style="font-family: -apple-system, BlinkMacSystemFont, &quot;Segoe WPC&quot;, &quot;Segoe UI&quot;, Ubuntu, &quot;Droid Sans&quot;, sans-serif, &quot;PingFang SC&quot;; font-size: 9px; font-weight: normal; text-rendering: geometricprecision; user-select: none;"><title>float32[256]</title><tspan style="font-weight: bold;">bias</tspan><tspan>〈256〉</tspan></text><line class="node" x1="0" x2="133.140625" y1="0" y2="0" style="stroke: rgb(51, 51, 51); fill: none; stroke-width: 1px;"/></g><g class="node-item node-item-type node-item-type-activation" transform="translate(0,62)"><path d="M0,0h133.140625a0,0 0 0 1 0,0v15a5,5 0 0 1 -5,5h-123.140625a5,5 0 0 1 -5,-5v-15a0,0 0 0 1 0,0z" style="stroke: rgb(0, 0, 0); fill: rgb(112, 41, 33); stroke-width: 0;"/><text x="6" y="13" style="font-family: -apple-system, BlinkMacSystemFont, &quot;Segoe WPC&quot;, &quot;Segoe UI&quot;, Ubuntu, &quot;Droid Sans&quot;, sans-serif, &quot;PingFang SC&quot;; font-size: 11px; text-rendering: geometricprecision; user-select: none; fill: rgb(255, 255, 255);">ReLU</text></g><line class="node" x1="0" x2="133.140625" y1="62" y2="62" style="stroke: rgb(51, 51, 51); fill: none; stroke-width: 1px;"/><path class="node border" d="M5,0h123.140625a5,5 0 0 1 5,5v72a5,5 0 0 1 -5,5h-123.140625a5,5 0 0 1 -5,-5v-72a5,5 0 0 1 5,-5z" style="stroke: rgb(51, 51, 51); fill: none; stroke-width: 1px;"/></g><g id="node-name-lstm_4" class="node graph-node" style="opacity: 1;" transform="translate(0,223)"><g class="node-item node-item-type node-item-type-layer" transform="translate(0,0)"><path d="M5,0h128.21875a5,5 0 0 1 5,5v15a0,0 0 0 1 0,0h-138.21875a0,0 0 0 1 0,0v-15a5,5 0 0 1 5,-5z" style="stroke: rgb(0, 0, 0); fill: rgb(51, 85, 136); stroke-width: 0;"/><text x="6" y="13" style="font-family: -apple-system, BlinkMacSystemFont, &quot;Segoe WPC&quot;, &quot;Segoe UI&quot;, Ubuntu, &quot;Droid Sans&quot;, sans-serif, &quot;PingFang SC&quot;; font-size: 11px; text-rendering: geometricprecision; user-select: none; fill: rgb(255, 255, 255);">LSTM</text><title>lstm_4</title></g><g class="node-attribute" transform="translate(0,20)"><path d="M0,0h138.21875a0,0 0 0 1 0,0v42a0,0 0 0 1 0,0h-138.21875a0,0 0 0 1 0,0v-42a0,0 0 0 1 0,0z" style="stroke: rgb(0, 0, 0); fill: rgb(255, 255, 255); stroke-width: 0;"/><text xml:space="preserve" x="6" y="12" style="font-family: -apple-system, BlinkMacSystemFont, &quot;Segoe WPC&quot;, &quot;Segoe UI&quot;, Ubuntu, &quot;Droid Sans&quot;, sans-serif, &quot;PingFang SC&quot;; font-size: 9px; font-weight: normal; text-rendering: geometricprecision; user-select: none;"><title>float32[64,512]</title><tspan style="font-weight: bold;">kernel</tspan><tspan>〈64×512〉</tspan></text><text xml:space="preserve" x="6" y="24" style="font-family: -apple-system, BlinkMacSystemFont, &quot;Segoe WPC&quot;, &quot;Segoe UI&quot;, Ubuntu, &quot;Droid Sans&quot;, sans-serif, &quot;PingFang SC&quot;; font-size: 9px; font-weight: normal; text-rendering: geometricprecision; user-select: none;"><title>float32[128,512]</title><tspan style="font-weight: bold;">recurrent_kernel</tspan><tspan>〈128×512〉</tspan></text><text xml:space="preserve" x="6" y="36" style="font-family: -apple-system, BlinkMacSystemFont, &quot;Segoe WPC&quot;, &quot;Segoe UI&quot;, Ubuntu, &quot;Droid Sans&quot;, sans-serif, &quot;PingFang SC&quot;; font-size: 9px; font-weight: normal; text-rendering: geometricprecision; user-select: none;"><title>float32[512]</title><tspan style="font-weight: bold;">bias</tspan><tspan>〈512〉</tspan></text><line class="node" x1="0" x2="138.21875" y1="0" y2="0" style="stroke: rgb(51, 51, 51); fill: none; stroke-width: 1px;"/></g><g class="node-item node-item-type node-item-type-activation" transform="translate(0,62)"><path d="M0,0h138.21875a0,0 0 0 1 0,0v15a5,5 0 0 1 -5,5h-128.21875a5,5 0 0 1 -5,-5v-15a0,0 0 0 1 0,0z" style="stroke: rgb(0, 0, 0); fill: rgb(112, 41, 33); stroke-width: 0;"/><text x="6" y="13" style="font-family: -apple-system, BlinkMacSystemFont, &quot;Segoe WPC&quot;, &quot;Segoe UI&quot;, Ubuntu, &quot;Droid Sans&quot;, sans-serif, &quot;PingFang SC&quot;; font-size: 11px; text-rendering: geometricprecision; user-select: none; fill: rgb(255, 255, 255);">ReLU</text></g><line class="node" x1="0" x2="138.21875" y1="62" y2="62" style="stroke: rgb(51, 51, 51); fill: none; stroke-width: 1px;"/><path class="node border" d="M5,0h128.21875a5,5 0 0 1 5,5v72a5,5 0 0 1 -5,5h-128.21875a5,5 0 0 1 -5,-5v-72a5,5 0 0 1 5,-5z" style="stroke: rgb(51, 51, 51); fill: none; stroke-width: 1px;"/></g><g id="node-name-lstm_5" class="node graph-node" style="opacity: 1;" transform="translate(2.5390625,325)"><g class="node-item node-item-type node-item-type-layer" transform="translate(0,0)"><path d="M5,0h123.140625a5,5 0 0 1 5,5v15a0,0 0 0 1 0,0h-133.140625a0,0 0 0 1 0,0v-15a5,5 0 0 1 5,-5z" style="stroke: rgb(0, 0, 0); fill: rgb(51, 85, 136); stroke-width: 0;"/><text x="6" y="13" style="font-family: -apple-system, BlinkMacSystemFont, &quot;Segoe WPC&quot;, &quot;Segoe UI&quot;, Ubuntu, &quot;Droid Sans&quot;, sans-serif, &quot;PingFang SC&quot;; font-size: 11px; text-rendering: geometricprecision; user-select: none; fill: rgb(255, 255, 255);">LSTM</text><title>lstm_5</title></g><g class="node-attribute" transform="translate(0,20)"><path d="M0,0h133.140625a0,0 0 0 1 0,0v42a0,0 0 0 1 0,0h-133.140625a0,0 0 0 1 0,0v-42a0,0 0 0 1 0,0z" style="stroke: rgb(0, 0, 0); fill: rgb(255, 255, 255); stroke-width: 0;"/><text xml:space="preserve" x="6" y="12" style="font-family: -apple-system, BlinkMacSystemFont, &quot;Segoe WPC&quot;, &quot;Segoe UI&quot;, Ubuntu, &quot;Droid Sans&quot;, sans-serif, &quot;PingFang SC&quot;; font-size: 9px; font-weight: normal; text-rendering: geometricprecision; user-select: none;"><title>float32[128,256]</title><tspan style="font-weight: bold;">kernel</tspan><tspan>〈128×256〉</tspan></text><text xml:space="preserve" x="6" y="24" style="font-family: -apple-system, BlinkMacSystemFont, &quot;Segoe WPC&quot;, &quot;Segoe UI&quot;, Ubuntu, &quot;Droid Sans&quot;, sans-serif, &quot;PingFang SC&quot;; font-size: 9px; font-weight: normal; text-rendering: geometricprecision; user-select: none;"><title>float32[64,256]</title><tspan style="font-weight: bold;">recurrent_kernel</tspan><tspan>〈64×256〉</tspan></text><text xml:space="preserve" x="6" y="36" style="font-family: -apple-system, BlinkMacSystemFont, &quot;Segoe WPC&quot;, &quot;Segoe UI&quot;, Ubuntu, &quot;Droid Sans&quot;, sans-serif, &quot;PingFang SC&quot;; font-size: 9px; font-weight: normal; text-rendering: geometricprecision; user-select: none;"><title>float32[256]</title><tspan style="font-weight: bold;">bias</tspan><tspan>〈256〉</tspan></text><line class="node" x1="0" x2="133.140625" y1="0" y2="0" style="stroke: rgb(51, 51, 51); fill: none; stroke-width: 1px;"/></g><g class="node-item node-item-type node-item-type-activation" transform="translate(0,62)"><path d="M0,0h133.140625a0,0 0 0 1 0,0v15a5,5 0 0 1 -5,5h-123.140625a5,5 0 0 1 -5,-5v-15a0,0 0 0 1 0,0z" style="stroke: rgb(0, 0, 0); fill: rgb(112, 41, 33); stroke-width: 0;"/><text x="6" y="13" style="font-family: -apple-system, BlinkMacSystemFont, &quot;Segoe WPC&quot;, &quot;Segoe UI&quot;, Ubuntu, &quot;Droid Sans&quot;, sans-serif, &quot;PingFang SC&quot;; font-size: 11px; text-rendering: geometricprecision; user-select: none; fill: rgb(255, 255, 255);">ReLU</text></g><line class="node" x1="0" x2="133.140625" y1="62" y2="62" style="stroke: rgb(51, 51, 51); fill: none; stroke-width: 1px;"/><path class="node border" d="M5,0h123.140625a5,5 0 0 1 5,5v72a5,5 0 0 1 -5,5h-123.140625a5,5 0 0 1 -5,-5v-72a5,5 0 0 1 5,-5z" style="stroke: rgb(51, 51, 51); fill: none; stroke-width: 1px;"/></g><g id="node-name-dense_3" class="node graph-node" style="opacity: 1;" transform="translate(27.7421875,427)"><g class="node-item node-item-type node-item-type-layer" transform="translate(0,0)"><path d="M5,0h72.734375a5,5 0 0 1 5,5v15a0,0 0 0 1 0,0h-82.734375a0,0 0 0 1 0,0v-15a5,5 0 0 1 5,-5z" style="stroke: rgb(0, 0, 0); fill: rgb(51, 85, 136); stroke-width: 0;"/><text x="6" y="13" style="font-family: -apple-system, BlinkMacSystemFont, &quot;Segoe WPC&quot;, &quot;Segoe UI&quot;, Ubuntu, &quot;Droid Sans&quot;, sans-serif, &quot;PingFang SC&quot;; font-size: 11px; text-rendering: geometricprecision; user-select: none; fill: rgb(255, 255, 255);">Dense</text><title>dense_3</title></g><g class="node-attribute" transform="translate(0,20)"><path d="M0,0h82.734375a0,0 0 0 1 0,0v30a0,0 0 0 1 0,0h-82.734375a0,0 0 0 1 0,0v-30a0,0 0 0 1 0,0z" style="stroke: rgb(0, 0, 0); fill: rgb(255, 255, 255); stroke-width: 0;"/><text xml:space="preserve" x="6" y="12" style="font-family: -apple-system, BlinkMacSystemFont, &quot;Segoe WPC&quot;, &quot;Segoe UI&quot;, Ubuntu, &quot;Droid Sans&quot;, sans-serif, &quot;PingFang SC&quot;; font-size: 9px; font-weight: normal; text-rendering: geometricprecision; user-select: none;"><title>float32[64,64]</title><tspan style="font-weight: bold;">kernel</tspan><tspan>〈64×64〉</tspan></text><text xml:space="preserve" x="6" y="24" style="font-family: -apple-system, BlinkMacSystemFont, &quot;Segoe WPC&quot;, &quot;Segoe UI&quot;, Ubuntu, &quot;Droid Sans&quot;, sans-serif, &quot;PingFang SC&quot;; font-size: 9px; font-weight: normal; text-rendering: geometricprecision; user-select: none;"><title>float32[64]</title><tspan style="font-weight: bold;">bias</tspan><tspan>〈64〉</tspan></text><line class="node" x1="0" x2="82.734375" y1="0" y2="0" style="stroke: rgb(51, 51, 51); fill: none; stroke-width: 1px;"/></g><g class="node-item node-item-type node-item-type-activation" transform="translate(0,50)"><path d="M0,0h82.734375a0,0 0 0 1 0,0v15a5,5 0 0 1 -5,5h-72.734375a5,5 0 0 1 -5,-5v-15a0,0 0 0 1 0,0z" style="stroke: rgb(0, 0, 0); fill: rgb(112, 41, 33); stroke-width: 0;"/><text x="6" y="13" style="font-family: -apple-system, BlinkMacSystemFont, &quot;Segoe WPC&quot;, &quot;Segoe UI&quot;, Ubuntu, &quot;Droid Sans&quot;, sans-serif, &quot;PingFang SC&quot;; font-size: 11px; text-rendering: geometricprecision; user-select: none; fill: rgb(255, 255, 255);">ReLU</text></g><line class="node" x1="0" x2="82.734375" y1="50" y2="50" style="stroke: rgb(51, 51, 51); fill: none; stroke-width: 1px;"/><path class="node border" d="M5,0h72.734375a5,5 0 0 1 5,5v60a5,5 0 0 1 -5,5h-72.734375a5,5 0 0 1 -5,-5v-60a5,5 0 0 1 5,-5z" style="stroke: rgb(51, 51, 51); fill: none; stroke-width: 1px;"/></g><g id="node-name-dense_4" class="node graph-node" style="opacity: 1;" transform="translate(27.7421875,517)"><g class="node-item node-item-type node-item-type-layer" transform="translate(0,0)"><path d="M5,0h72.734375a5,5 0 0 1 5,5v15a0,0 0 0 1 0,0h-82.734375a0,0 0 0 1 0,0v-15a5,5 0 0 1 5,-5z" style="stroke: rgb(0, 0, 0); fill: rgb(51, 85, 136); stroke-width: 0;"/><text x="6" y="13" style="font-family: -apple-system, BlinkMacSystemFont, &quot;Segoe WPC&quot;, &quot;Segoe UI&quot;, Ubuntu, &quot;Droid Sans&quot;, sans-serif, &quot;PingFang SC&quot;; font-size: 11px; text-rendering: geometricprecision; user-select: none; fill: rgb(255, 255, 255);">Dense</text><title>dense_4</title></g><g class="node-attribute" transform="translate(0,20)"><path d="M0,0h82.734375a0,0 0 0 1 0,0v30a0,0 0 0 1 0,0h-82.734375a0,0 0 0 1 0,0v-30a0,0 0 0 1 0,0z" style="stroke: rgb(0, 0, 0); fill: rgb(255, 255, 255); stroke-width: 0;"/><text xml:space="preserve" x="6" y="12" style="font-family: -apple-system, BlinkMacSystemFont, &quot;Segoe WPC&quot;, &quot;Segoe UI&quot;, Ubuntu, &quot;Droid Sans&quot;, sans-serif, &quot;PingFang SC&quot;; font-size: 9px; font-weight: normal; text-rendering: geometricprecision; user-select: none;"><title>float32[64,32]</title><tspan style="font-weight: bold;">kernel</tspan><tspan>〈64×32〉</tspan></text><text xml:space="preserve" x="6" y="24" style="font-family: -apple-system, BlinkMacSystemFont, &quot;Segoe WPC&quot;, &quot;Segoe UI&quot;, Ubuntu, &quot;Droid Sans&quot;, sans-serif, &quot;PingFang SC&quot;; font-size: 9px; font-weight: normal; text-rendering: geometricprecision; user-select: none;"><title>float32[32]</title><tspan style="font-weight: bold;">bias</tspan><tspan>〈32〉</tspan></text><line class="node" x1="0" x2="82.734375" y1="0" y2="0" style="stroke: rgb(51, 51, 51); fill: none; stroke-width: 1px;"/></g><g class="node-item node-item-type node-item-type-activation" transform="translate(0,50)"><path d="M0,0h82.734375a0,0 0 0 1 0,0v15a5,5 0 0 1 -5,5h-72.734375a5,5 0 0 1 -5,-5v-15a0,0 0 0 1 0,0z" style="stroke: rgb(0, 0, 0); fill: rgb(112, 41, 33); stroke-width: 0;"/><text x="6" y="13" style="font-family: -apple-system, BlinkMacSystemFont, &quot;Segoe WPC&quot;, &quot;Segoe UI&quot;, Ubuntu, &quot;Droid Sans&quot;, sans-serif, &quot;PingFang SC&quot;; font-size: 11px; text-rendering: geometricprecision; user-select: none; fill: rgb(255, 255, 255);">ReLU</text></g><line class="node" x1="0" x2="82.734375" y1="50" y2="50" style="stroke: rgb(51, 51, 51); fill: none; stroke-width: 1px;"/><path class="node border" d="M5,0h72.734375a5,5 0 0 1 5,5v60a5,5 0 0 1 -5,5h-72.734375a5,5 0 0 1 -5,-5v-60a5,5 0 0 1 5,-5z" style="stroke: rgb(51, 51, 51); fill: none; stroke-width: 1px;"/></g><g id="node-name-dense_5" class="node graph-node" style="opacity: 1;" transform="translate(30.28125,607)"><g class="node-item node-item-type node-item-type-layer" transform="translate(0,0)"><path d="M5,0h67.65625a5,5 0 0 1 5,5v15a0,0 0 0 1 0,0h-77.65625a0,0 0 0 1 0,0v-15a5,5 0 0 1 5,-5z" style="stroke: rgb(0, 0, 0); fill: rgb(51, 85, 136); stroke-width: 0;"/><text x="6" y="13" style="font-family: -apple-system, BlinkMacSystemFont, &quot;Segoe WPC&quot;, &quot;Segoe UI&quot;, Ubuntu, &quot;Droid Sans&quot;, sans-serif, &quot;PingFang SC&quot;; font-size: 11px; text-rendering: geometricprecision; user-select: none; fill: rgb(255, 255, 255);">Dense</text><title>dense_5</title></g><g class="node-attribute" transform="translate(0,20)"><path d="M0,0h77.65625a0,0 0 0 1 0,0v30a0,0 0 0 1 0,0h-77.65625a0,0 0 0 1 0,0v-30a0,0 0 0 1 0,0z" style="stroke: rgb(0, 0, 0); fill: rgb(255, 255, 255); stroke-width: 0;"/><text xml:space="preserve" x="6" y="12" style="font-family: -apple-system, BlinkMacSystemFont, &quot;Segoe WPC&quot;, &quot;Segoe UI&quot;, Ubuntu, &quot;Droid Sans&quot;, sans-serif, &quot;PingFang SC&quot;; font-size: 9px; font-weight: normal; text-rendering: geometricprecision; user-select: none;"><title>float32[32,5]</title><tspan style="font-weight: bold;">kernel</tspan><tspan>〈32×5〉</tspan></text><text xml:space="preserve" x="6" y="24" style="font-family: -apple-system, BlinkMacSystemFont, &quot;Segoe WPC&quot;, &quot;Segoe UI&quot;, Ubuntu, &quot;Droid Sans&quot;, sans-serif, &quot;PingFang SC&quot;; font-size: 9px; font-weight: normal; text-rendering: geometricprecision; user-select: none;"><title>float32[5]</title><tspan style="font-weight: bold;">bias</tspan><tspan>〈5〉</tspan></text><line class="node" x1="0" x2="77.65625" y1="0" y2="0" style="stroke: rgb(51, 51, 51); fill: none; stroke-width: 1px;"/></g><g class="node-item node-item-type node-item-type-activation" transform="translate(0,50)"><path d="M0,0h77.65625a0,0 0 0 1 0,0v15a5,5 0 0 1 -5,5h-67.65625a5,5 0 0 1 -5,-5v-15a0,0 0 0 1 0,0z" style="stroke: rgb(0, 0, 0); fill: rgb(112, 41, 33); stroke-width: 0;"/><text x="6" y="13" style="font-family: -apple-system, BlinkMacSystemFont, &quot;Segoe WPC&quot;, &quot;Segoe UI&quot;, Ubuntu, &quot;Droid Sans&quot;, sans-serif, &quot;PingFang SC&quot;; font-size: 11px; text-rendering: geometricprecision; user-select: none; fill: rgb(255, 255, 255);">Softmax</text></g><line class="node" x1="0" x2="77.65625" y1="50" y2="50" style="stroke: rgb(51, 51, 51); fill: none; stroke-width: 1px;"/><path class="node border" d="M5,0h67.65625a5,5 0 0 1 5,5v60a5,5 0 0 1 -5,5h-67.65625a5,5 0 0 1 -5,-5v-60a5,5 0 0 1 5,-5z" style="stroke: rgb(51, 51, 51); fill: none; stroke-width: 1px;"/></g><g class="node" style="opacity: 1;" transform="translate(41.296875,697)"><g class="node-item graph-item-output" transform="translate(0,0)"><path d="M5,0h45.625a5,5 0 0 1 5,5v10a5,5 0 0 1 -5,5h-45.625a5,5 0 0 1 -5,-5v-10a5,5 0 0 1 5,-5z" style="stroke: rgb(0, 0, 0); fill: rgb(238, 238, 238); stroke-width: 0;"/><text x="6" y="13" style="font-family: -apple-system, BlinkMacSystemFont, &quot;Segoe WPC&quot;, &quot;Segoe UI&quot;, Ubuntu, &quot;Droid Sans&quot;, sans-serif, &quot;PingFang SC&quot;; font-size: 11px; text-rendering: geometricprecision; user-select: none;">dense_5</text></g><path class="node border" d="M5,0h45.625a5,5 0 0 1 5,5v10a5,5 0 0 1 -5,5h-45.625a5,5 0 0 1 -5,-5v-10a5,5 0 0 1 5,-5z" style="stroke: rgb(51, 51, 51); fill: none; stroke-width: 1px;"/></g></g></g></svg>